<?xml version="1.0" encoding="UTF-8"?>
<svg version="1.1" xmlns="http://www.w3.org/2000/svg" width="150" height="93">
<path d="M0 0 C2.13769531 0.69677734 2.13769531 0.69677734 4.77050781 3.64599609 C6.13769531 6.69677734 6.13769531 6.69677734 6.13769531 8.69677734 C5.17730347 8.66535645 5.17730347 8.66535645 4.19750977 8.63330078 C1.28189956 8.5498845 -1.63345921 8.49803765 -4.54980469 8.44677734 C-5.55720703 8.41326172 -6.56460938 8.37974609 -7.60253906 8.34521484 C-11.90773349 8.28838059 -14.99378826 8.26083378 -18.88183594 10.21240234 C-21.06726326 12.95388514 -21.9482504 15.31865748 -23.03515625 18.60986328 C-24.44534815 22.16780908 -26.80972668 24.90212271 -29.23730469 27.82177734 C-29.70652344 28.40314453 -30.17574219 28.98451172 -30.65917969 29.58349609 C-33.68635629 33.32147383 -36.78299634 37.00160732 -39.86230469 40.69677734 C-0.92230469 40.69677734 38.01769531 40.69677734 78.13769531 40.69677734 C74.83769531 36.73677734 71.53769531 32.77677734 68.13769531 28.69677734 C64.13769531 23.69677734 64.13769531 23.69677734 64.13769531 21.69677734 C63.47769531 21.69677734 62.81769531 21.69677734 62.13769531 21.69677734 C62.76529396 18.76798363 63.7239219 16.33582105 65.13769531 13.69677734 C69.35549725 15.23583671 71.48012967 18.35250431 74.07519531 21.82177734 C75.03837178 23.08346856 76.00329189 24.34383011 76.96972656 25.60302734 C77.732771 26.59882812 77.732771 26.59882812 78.51123047 27.61474609 C80.20909662 29.78817787 81.95126764 31.91768809 83.71191406 34.04052734 C84.30302979 34.75450684 84.89414551 35.46848633 85.50317383 36.20410156 C86.65898277 37.59517785 87.81949593 38.9823615 88.98510742 40.36523438 C89.77606812 41.32212158 89.77606812 41.32212158 90.58300781 42.29833984 C91.0523877 42.85859863 91.52176758 43.41885742 92.00537109 43.99609375 C93.13769531 45.69677734 93.13769531 45.69677734 94.13769531 49.69677734 C44.63769531 49.69677734 -4.86230469 49.69677734 -55.86230469 49.69677734 C-54.30045772 45.79215992 -53.52638866 43.97240196 -50.99121094 40.98193359 C-50.42241211 40.30291992 -49.85361328 39.62390625 -49.26757812 38.92431641 C-48.65946289 38.20985352 -48.05134766 37.49539062 -47.42480469 36.75927734 C-46.14882628 35.23557432 -44.87410208 33.71082019 -43.60058594 32.18505859 C-42.96717285 31.42789551 -42.33375977 30.67073242 -41.68115234 29.890625 C-39.5690632 27.34307694 -37.50036245 24.76572717 -35.45825195 22.16186523 C-34.56230966 21.02020106 -33.6578245 19.88518881 -32.74487305 18.75708008 C-30.47163293 15.91873138 -28.47792887 13.11358534 -26.69824219 9.93896484 C-20.34985735 -0.7947239 -12.05634025 -1.67278772 0 0 Z " fill="#000000" transform="translate(55.8623046875,39.30322265625)"/>
<path d="M0 0 C5.30038461 4.31426654 8.40190979 9.54436768 9.5625 16.25 C7.63592619 29.09382538 -1.52310291 46.03829609 -10 56 C-10.66 56 -11.32 56 -12 56 C-13.12573242 54.58569336 -13.12573242 54.58569336 -14.35546875 52.58984375 C-14.81002441 51.85386963 -15.26458008 51.11789551 -15.73291016 50.35961914 C-16.2129248 49.56031982 -16.69293945 48.76102051 -17.1875 47.9375 C-17.67782715 47.12853271 -18.1681543 46.31956543 -18.67333984 45.48608398 C-31.96984113 23.18333183 -31.96984113 23.18333183 -31 13 C-28.87079959 7.2573433 -26.43126704 2.17927827 -21 -1 C-13.57771551 -4.29879311 -7.03028966 -3.84676227 0 0 Z M-19 12 C-20.42662219 14.85324437 -20.31033868 16.83454549 -20 20 C-18.20006226 22.69990662 -16.916227 24.5418865 -14 26 C-10.12785818 26.43023798 -8.47503629 26.31669086 -5.1875 24.125 C-2.60733184 21.61855093 -2.08282036 20.74538327 -1.6875 17.1875 C-2.07164358 13.2692355 -3.29256317 11.78706733 -6 9 C-11.2981842 6.3509079 -15.0084938 8.12253683 -19 12 Z " fill="#000000" transform="translate(86,5)"/>
<path d="M0 0 C2.86258553 1.90395224 5.43590539 3.87181078 7 7 C8.41282111 16.18333724 3.12452568 24.66616716 -2.109375 31.92578125 C-3.04523438 32.95251953 -3.04523438 32.95251953 -4 34 C-4.66 34 -5.32 34 -6 34 C-7.46220279 31.43964079 -8.91985153 28.8768644 -10.375 26.3125 C-10.7875 25.59126953 -11.2 24.87003906 -11.625 24.12695312 C-17.89111915 13.06017817 -17.89111915 13.06017817 -16 6 C-11.50215231 0.37769039 -7.08999081 -2.17040535 0 0 Z M-10 9 C-9.72459296 12.81813447 -9.72459296 12.81813447 -8 16 C-3.85723125 16.24733137 -3.85723125 16.24733137 0 15 C1.00050953 12.58210196 1.09774325 11.34210137 0.375 8.8125 C-0.90451124 6.80018249 -0.90451124 6.80018249 -3.375 6.0625 C-6.60939697 5.98549055 -7.67097204 6.84349263 -10 9 Z " fill="#000000" transform="translate(115,31)"/>
<path d="M0 0 C2.33452043 2.69928924 3 4.12247049 3 7.6875 C1.13439954 13.86730151 -1.7598965 20.07966599 -6 25 C-6.66 25 -7.32 25 -8 25 C-9.69140625 22.48046875 -9.69140625 22.48046875 -11.5625 19.1875 C-12.49255859 17.56908203 -12.49255859 17.56908203 -13.44140625 15.91796875 C-15.84326948 11.42124737 -16.52643764 8.08889722 -16 3 C-13.9032614 0.32083402 -12.12326139 -1.40092726 -9.125 -3 C-5.55285731 -3 -3.09829413 -1.68997862 0 0 Z M-9 3 C-9.66 3.66 -10.32 4.32 -11 5 C-10.67958603 7.60280568 -10.67958603 7.60280568 -10 10 C-7.60280568 10.67958603 -7.60280568 10.67958603 -5 11 C-4.34 10.34 -3.68 9.68 -3 9 C-3.32041397 6.39719432 -3.32041397 6.39719432 -4 4 C-6.39719432 3.32041397 -6.39719432 3.32041397 -9 3 Z " fill="#000000" transform="translate(51,51)"/>
<path d="M0 0 C1.32 0 2.64 0 4 0 C4.33 2.64 4.66 5.28 5 8 C2.03 8 -0.94 8 -4 8 C-2.87548273 5.0280615 -1.77706209 2.66559313 0 0 Z " fill="#000000" transform="translate(92,40)"/>
</svg>
